<svg width="82" height="82" viewBox="0 0 82 82" fill="none" xmlns="http://www.w3.org/2000/svg">
<path d="M0 82H82V0H0V82Z" fill="url(#paint0_linear)"/>
<path d="M64.4582 25.4144C60.3249 21.2812 54.7648 18.9932 48.8848 18.9932C43.0048 18.9932 37.4447 21.2812 33.3114 25.4144L32.8686 25.8572C31.8107 25.685 30.8512 25.5866 29.7933 25.5866C24.8728 25.5866 20.0999 27.5302 16.5818 31.1222C9.27483 38.4291 9.27483 50.2383 16.5818 57.5452C20.0999 61.0634 24.7744 63.007 29.7933 63.007H49.3522C55.1584 62.9085 60.5464 60.6205 64.5812 56.5857C73.0936 47.9503 73.0936 33.9515 64.4582 25.4144ZM29.8425 58.9722C25.8815 58.9722 22.2649 57.2992 19.5341 54.4699C13.8017 48.7375 13.8017 39.5116 19.5341 33.853C22.2649 31.1222 25.9553 29.5476 29.8425 29.5476H29.9409C30.7282 29.5476 31.3432 29.646 32.0567 29.7198C32.844 29.8921 33.5575 29.9905 34.3447 30.2365C35.7471 30.6793 37.0756 31.3928 38.2073 32.1801C38.724 32.6229 39.3636 32.9674 39.7819 33.5086L40.2247 33.9515L46.2031 39.9299C46.9904 40.7171 46.9904 41.9473 46.2031 42.8329C45.7603 43.2758 45.3174 43.448 44.8008 43.448C44.2841 43.448 43.7429 43.2758 43.3984 42.8329L38.478 37.9125L37.4201 36.8545C37.2478 36.6823 37.0756 36.5839 36.9772 36.4117C35.5749 35.1816 33.9019 34.3943 32.0567 34.0253C31.4417 33.853 30.7282 33.853 30.1131 33.853H29.8425C27.1116 33.9515 24.6514 35.0094 22.7078 36.9284C18.5746 41.0616 18.5746 47.6796 22.7078 51.8128C24.7252 53.8302 27.2838 54.8881 30.1869 54.8881H32.0321L33.8035 56.5611C34.6892 57.4468 35.5749 58.3325 36.6328 58.9476H29.8425V58.9722ZM61.6289 53.6826C59.7837 55.5278 57.5695 56.9301 55.1092 57.8158C54.3219 58.0865 53.6085 58.2587 52.8212 58.5293C51.6649 58.7999 50.4348 58.9722 49.2046 58.9722H48.8602C44.6286 58.9722 40.6676 57.5698 37.4939 54.9127C37.051 54.5683 36.6082 54.1255 36.1653 53.7564L27.7021 45.2932C26.9148 44.5059 26.9148 43.2758 27.7021 42.3901C28.1449 41.9473 28.5878 41.775 29.1044 41.775C29.6211 41.775 30.1623 41.9473 30.5068 42.3901L38.8716 50.7549C39.6589 51.5422 40.5446 52.1573 41.4303 52.7723C43.5461 54.1009 46.0063 54.7897 48.6388 54.7897C49.7951 54.7897 51.0252 54.6175 52.0831 54.3469C52.7966 54.1747 53.4855 53.904 54.1005 53.6334C55.6751 52.9199 57.1758 51.9605 58.5044 50.6319C63.8677 45.2686 63.8677 36.4609 58.5044 31.073C55.7735 28.3421 52.2553 27.0136 48.7372 27.0136C46.0063 27.0136 43.3738 27.8008 40.9874 29.4C39.8311 28.5143 38.601 27.727 37.1986 27.112C40.5446 24.3811 44.6778 22.9788 48.7372 22.9788C53.3132 22.9788 57.8893 24.7501 61.4075 28.1699C68.5914 35.28 68.5914 46.6463 61.6289 53.6826Z" fill="white"/>
<defs>
<linearGradient id="paint0_linear" x1="40.9935" y1="82.0029" x2="40.9935" y2="-0.00323093" gradientUnits="userSpaceOnUse">
<stop stop-color="#911A1E"/>
<stop offset="1" stop-color="#D61E25"/>
</linearGradient>
</defs>
</svg>
