<svg width="67" height="75" viewBox="0 0 67 75" fill="none" xmlns="http://www.w3.org/2000/svg">
<path d="M6.45327 67.2617L0.40918 0.238953H66.8117L60.7601 67.2506L33.5692 74.7029L6.45327 67.2617Z" fill="#1572B6"/>
<path d="M33.6106 69.0081L55.5823 62.9832L60.749 5.71875H33.6106V69.0081Z" fill="#33A9DC"/>
<path d="M33.6106 30H44.6114L45.3688 21.5837H33.6106V13.3677H54.4575L54.2587 15.5737L52.2153 38.2272H33.6106V30Z" fill="white"/>
<path d="M33.6562 51.3485H33.6187L24.3613 48.8755L23.7689 42.3205H15.4302L16.5962 55.2267L33.6262 59.9131H33.6749V51.3485H33.6562Z" fill="#EBEBEB"/>
<path d="M43.9072 37.8676L42.9062 48.8681L33.6338 51.3411V59.9057L50.675 55.2341L50.7987 53.8438L52.246 37.8639H43.9072V37.8676Z" fill="white"/>
<path d="M33.6397 13.3677V21.5874H13.5653L13.3928 19.741L13.0141 15.5737L12.8154 13.3677H33.6397ZM33.6097 30V38.2197H24.4574L24.2962 36.3734L23.9175 32.206L23.7188 30H33.606H33.6097Z" fill="#EBEBEB"/>
</svg>
