<svg width="55" height="82" viewBox="0 0 55 82" fill="none" xmlns="http://www.w3.org/2000/svg">
<g clip-path="url(#clip0)">
<path d="M13.7521 82.0001C21.3406 82.0001 27.4994 75.8775 27.4994 68.3334V54.6667H13.7521C6.16365 54.6667 0.00488281 60.7894 0.00488281 68.3334C0.00488281 75.8775 6.16365 82.0001 13.7521 82.0001Z" fill="#0ACF83"/>
<path d="M0.00488281 40.9999C0.00488281 33.4559 6.16365 27.3333 13.7521 27.3333H27.4994V54.6666H13.7521C6.16365 54.6666 0.00488281 48.5439 0.00488281 40.9999Z" fill="#A259FF"/>
<path d="M0.00488281 13.6667C0.00488281 6.12267 6.16365 0 13.7521 0H27.4994V27.3333H13.7521C6.16365 27.3333 0.00488281 21.2107 0.00488281 13.6667Z" fill="#F24E1F"/>
<path d="M27.5 0H41.2473C48.8357 0 54.9945 6.12267 54.9945 13.6667C54.9945 21.2107 48.8357 27.3333 41.2473 27.3333H27.5V0Z" fill="#FF7262"/>
<path d="M54.9945 40.9999C54.9945 48.5439 48.8357 54.6666 41.2473 54.6666C33.6588 54.6666 27.5 48.5439 27.5 40.9999C27.5 33.4559 33.6588 27.3333 41.2473 27.3333C48.8357 27.3333 54.9945 33.4559 54.9945 40.9999Z" fill="#1ABCFE"/>
</g>
<defs>
<clipPath id="clip0">
<rect width="55" height="82" fill="white"/>
</clipPath>
</defs>
</svg>
