<svg width="83" height="82" viewBox="0 0 83 82" fill="none" xmlns="http://www.w3.org/2000/svg">
<path d="M73.4257 41H52.9513V46.8572H66.9909C64.9434 55.6429 58.5086 62.9643 50.0264 65.8929L16.3899 32.2143C19.8998 21.9643 29.8445 14.6429 41.2517 14.6429C50.0264 14.6429 57.9236 19.0357 62.896 25.7715L67.2834 21.9643C61.4335 14.0572 52.0738 8.78574 41.2517 8.78574C26.0421 8.78574 13.1725 19.6215 9.95511 33.9715L48.5639 72.6286C62.6035 69.1143 73.4257 56.2286 73.4257 41ZM9.07764 41.2929C9.07764 49.4929 12.295 57.4 18.4374 63.55C24.5797 69.7 32.7694 72.9214 40.6667 72.9214L9.07764 41.2929Z" fill="white"/>
<path d="M41.2512 0C18.7294 0 0.30249 18.45 0.30249 41C0.30249 63.55 18.7294 82 41.2512 82C63.7731 82 82.2 63.55 82.2 41C82.2 18.45 63.7731 0 41.2512 0ZM18.4369 63.8429C12.2946 57.6929 9.07722 49.4929 9.07722 41.5857L40.9587 73.2143C32.769 72.9214 24.5792 69.9929 18.4369 63.8429ZM48.271 72.3357L9.9547 33.9714C13.1721 19.6214 26.0417 8.78571 41.2512 8.78571C52.0734 8.78571 61.4331 14.0571 67.2829 21.9643L62.8956 25.7714C57.9232 19.0357 50.026 14.6429 41.2512 14.6429C29.8441 14.6429 20.1919 21.9643 16.3895 32.2143L50.026 65.8929C58.5082 62.9643 64.943 55.6429 66.9905 46.8571H52.9509V41H73.4253C73.4253 56.2286 62.6031 69.1143 48.271 72.3357Z" fill="#663399"/>
</svg>
