<svg width="73" height="82" viewBox="0 0 73 82" fill="none" xmlns="http://www.w3.org/2000/svg">
<g clip-path="url(#clip0)">
<path fill-rule="evenodd" clip-rule="evenodd" d="M43.4534 9.38821L60.2982 19.1105C60.7845 18.5961 61.3426 18.1547 61.9552 17.7998C65.4485 15.7921 69.9045 16.9841 71.9337 20.4765C73.9421 23.9688 72.7497 28.4228 69.256 30.4513C68.648 30.8013 67.9928 31.0621 67.3106 31.2256V50.6773C67.9854 50.8412 68.6334 51.1002 69.2352 51.4466C72.7497 53.475 73.9421 57.9293 71.9129 61.4217C69.9045 64.9137 65.4277 66.1058 61.9341 64.0984C61.2573 63.7102 60.6476 63.2154 60.1285 62.6331L43.3862 72.2956C43.6314 73.0377 43.7559 73.8143 43.755 74.5959C43.755 78.6109 40.4918 81.8943 36.4542 81.8943C32.4166 81.8943 29.1534 78.6317 29.1534 74.5959C29.1534 73.8785 29.2565 73.1855 29.4487 72.531L12.6085 62.8116C12.1275 63.3157 11.5773 63.749 10.9743 64.0984C7.45988 66.1058 3.0039 64.9137 0.99549 61.4217C-1.01263 57.9293 0.179823 53.475 3.67318 51.4466C4.27498 51.1001 4.92304 50.841 5.59785 50.6771V31.2256C4.91559 31.0621 4.26039 30.8013 3.65239 30.4513C0.158748 28.4439 -1.03371 23.9688 0.974699 20.4765C2.98311 16.9841 7.45959 15.7921 10.9532 17.7998C11.5624 18.1528 12.1178 18.5914 12.6022 19.1022L29.4518 9.37739C29.2532 8.70349 29.1527 8.00451 29.1534 7.30197C29.1534 3.26644 32.4166 0.00384521 36.4542 0.00384521C40.4918 0.00384521 43.755 3.26615 43.755 7.30197C43.755 8.02737 43.6497 8.72743 43.4534 9.38821ZM41.6985 12.3838L58.5834 22.1288C58.3146 23.0683 58.2375 24.0523 58.3567 25.0222C58.4759 25.9921 58.7891 26.9281 59.2775 27.7746C60.3053 29.5619 61.9797 30.7468 63.838 31.2086V50.6845C63.7432 50.7075 63.6489 50.7329 63.5552 50.7596L41.5023 12.5788C41.5689 12.515 41.6344 12.4501 41.6985 12.384V12.3838ZM31.4107 12.583L9.35807 50.7633C9.26271 50.7358 9.16681 50.7101 9.07042 50.6865V31.2086C10.9287 30.7468 12.6031 29.5619 13.6309 27.7746C14.1203 26.9265 14.4338 25.9885 14.5525 25.0166C14.6713 24.0448 14.5929 23.0589 14.3221 22.118L31.2022 12.3758C31.2703 12.4461 31.3398 12.5153 31.4107 12.5828V12.583ZM38.4942 14.3126L60.5417 52.4843C60.0367 52.966 59.6038 53.518 59.2564 54.1233C58.9099 54.7249 58.6508 55.3727 58.4869 56.0472H14.4221C14.258 55.3727 13.9987 54.7248 13.652 54.1233C13.3034 53.5222 12.8713 52.9735 12.3687 52.4937L34.4205 14.3143C35.0816 14.5046 35.7662 14.6008 36.4542 14.6001C37.1625 14.6001 37.8469 14.4999 38.4942 14.3126ZM41.8534 69.6792L58.6287 59.9974C58.5784 59.8393 58.5335 59.6796 58.494 59.5185H14.4127C14.3893 59.6133 14.364 59.7073 14.3369 59.8009L31.1942 69.5303C31.875 68.8227 32.6919 68.2602 33.5959 67.8765C34.4998 67.4928 35.4721 67.296 36.4542 67.2978C37.4706 67.296 38.4761 67.507 39.406 67.9171C40.3359 68.3273 41.1696 68.9275 41.8534 69.6792Z" fill="#E535AB"/>
</g>
<defs>
<clipPath id="clip0">
<rect width="72.9088" height="82" fill="white"/>
</clipPath>
</defs>
</svg>
