<svg width="67" height="76" viewBox="0 0 67 76" fill="none" xmlns="http://www.w3.org/2000/svg">
<path d="M66.1662 0L60.1383 67.6124L33.0426 75.1335L6.02164 67.6228L0 0H66.1662Z" fill="#E44D26"/>
<path d="M33.0833 69.3844L54.9779 63.3069L60.1288 5.52898H33.0833V69.3844Z" fill="#F16529"/>
<path d="M21.3656 22.1165H33.0836V13.8229H12.313L12.5111 16.0479L14.5471 38.903H33.0836V30.6094H22.1226L21.3656 22.1165ZM23.2325 43.05H14.9173L16.0776 56.0723L33.0455 60.7882L33.0836 60.7779V52.1489L33.0473 52.1586L23.8222 49.6645L23.2325 43.05Z" fill="#EBEBEB"/>
<path d="M33.0537 38.903H43.2537L42.292 49.6593L33.0535 52.156V60.7844L50.0348 56.0723L50.1593 54.671L52.106 32.8365L52.3081 30.6094H33.0537V38.903ZM33.0537 22.0963V22.1165H53.0618L53.2278 20.2525L53.6054 16.0479L53.8033 13.8229H33.0537V22.0965V22.0963Z" fill="white"/>
</svg>
