<svg width="83" height="74" viewBox="0 0 83 74" fill="none" xmlns="http://www.w3.org/2000/svg">
<g clip-path="url(#clip0)">
<path d="M0.508789 0H82.4063V74H0.508789V0Z" fill="#F7DF1E"/>
<path d="M22.0428 61.8397L28.3099 58.4126C29.5191 60.3496 30.619 61.9886 33.2573 61.9886C35.7862 61.9886 37.381 61.0948 37.381 57.618V33.9732H45.0771V57.7162C45.0771 64.9188 40.4045 68.1973 33.5871 68.1973C27.4304 68.1973 23.8567 65.3163 22.0425 61.8391L22.0428 61.8397ZM49.2574 61.0945L55.5238 57.8163C57.1736 60.2504 59.3177 62.0386 63.1106 62.0386C66.2998 62.0386 68.3331 60.5979 68.3331 58.6109C68.3331 56.2267 66.2441 55.3821 62.7257 53.9917L60.8021 53.2459C55.2494 51.1106 51.5662 48.4281 51.5662 42.7653C51.5662 37.5495 55.964 33.5755 62.8361 33.5755C67.7288 33.5755 71.2472 35.1156 73.7758 39.1391L67.7832 42.6165C66.4636 40.4806 65.0348 39.6362 62.8358 39.6362C60.5816 39.6362 59.1523 40.9278 59.1523 42.6165C59.1523 44.7026 60.5817 45.5476 63.8799 46.8391L65.8039 47.584C72.3461 50.1177 76.0292 52.7004 76.0292 58.5117C76.0292 64.7711 70.5869 68.1982 63.2753 68.1982C56.1288 68.1982 51.5109 65.1185 49.2571 61.0948" fill="black"/>
</g>
<defs>
<clipPath id="clip0">
<rect width="81.8975" height="74" fill="white" transform="translate(0.508789)"/>
</clipPath>
</defs>
</svg>
