<svg width="82" height="82" viewBox="0 0 82 82" fill="none" xmlns="http://www.w3.org/2000/svg">
<g clip-path="url(#clip0)">
<path d="M49.0792 53.0691L28.9935 48.8666C28.9094 49.0294 28.8158 49.1872 28.7132 49.339L46.9985 76.046L48.1015 74.9429L51.2123 55.5736C50.6865 55.3512 50.2199 55.0089 49.8495 54.574C49.4792 54.1392 49.2154 53.6237 49.0792 53.0687V53.0691ZM41.7519 26.7797C40.9995 27.9354 39.7006 28.7003 38.2213 28.7003C37.9936 28.7003 37.7722 28.6773 37.5546 28.6427L28.3946 42.993L52.8672 32.4483C52.8596 32.3496 52.8378 32.2574 52.8378 32.1562C52.8378 31.9499 52.866 31.75 52.8992 31.5527L41.7519 26.78V26.7797ZM42.4173 24.1647L54.2749 29.241C54.6527 28.9453 55.0849 28.7268 55.5468 28.5978L57.4957 16.4644L50.0709 9.03025L41.7135 22.124C42.1231 22.7306 42.3658 23.4346 42.4173 24.165V24.1647ZM67.2633 26.2442L59.8221 18.7924L58.2047 28.8528C58.6147 29.0592 58.983 29.3398 59.2911 29.6805L67.2633 26.2442ZM49.4349 50.4191C49.7261 49.8898 50.1444 49.4415 50.6521 49.1147C51.1598 48.7878 51.7408 48.5928 52.3426 48.5472L54.4796 35.2389C54.312 35.1274 54.1622 34.9941 54.0151 34.857L29.4017 45.4632C29.4644 45.7208 29.5079 45.9834 29.5284 46.2563L49.4349 50.4191ZM69.2902 28.2749L60.6808 31.9842L81.9233 41.0775L82 41.0006L69.2902 28.2749ZM53.905 55.6136L51.3176 71.7202L66.3419 56.6771L55.52 54.4144C55.1049 54.9581 54.5452 55.3738 53.905 55.6136ZM24.7015 51.4726C24.1577 51.4726 23.6369 51.3791 23.1493 51.2135L18.1587 59.0333L16.2303 57.1037L20.9573 49.6981C20.8404 49.5528 20.7315 49.4013 20.631 49.2442L12.0676 52.9358L10.0377 50.9034L19.4112 46.8636L2.46509 43.3223L0.147327 41.0006L0.880565 40.2665L20.4224 44.3511C20.6471 43.9243 20.9349 43.5338 21.2759 43.1929L11.7912 29.3409L13.7068 27.4229L23.6161 41.8962C23.9719 41.8135 24.3359 41.7709 24.7012 41.7694C25.1197 41.7694 25.5253 41.8283 25.913 41.9283L35.1857 27.4011C34.4308 26.617 34.0092 25.5703 34.0097 24.4812C34.0097 24.148 34.0519 23.8252 34.1249 23.5151L22.5569 18.5631L24.5861 16.531L35.5462 21.2242C36.102 20.7656 36.7663 20.4579 37.4752 20.3306C38.1841 20.2034 38.9138 20.261 39.5941 20.4978L48.1434 7.10069L41.0519 0L0.102539 41.0006L41.0519 82.0013L45.0815 77.9666L26.6594 51.0572C26.0429 51.3308 25.376 51.4723 24.7015 51.4726ZM57.0862 35.8125L54.9121 49.3416C55.2921 49.6473 55.6067 50.0264 55.8373 50.4563C56.0679 50.8862 56.2098 51.3582 56.2545 51.8442L68.5941 54.4233L79.8934 43.1099L59.4984 34.3791C58.9148 35.157 58.0477 35.6724 57.0862 35.8129V35.8125Z" fill="#25C7B7"/>
</g>
<defs>
<clipPath id="clip0">
<rect width="81.8975" height="82" fill="white" transform="translate(0.102539)"/>
</clipPath>
</defs>
</svg>
