<svg width="143" height="74" viewBox="0 0 143 74" fill="none" xmlns="http://www.w3.org/2000/svg">
<g clip-path="url(#clip0)">
<path d="M71.2513 73.5685C110.415 73.5685 142.163 57.0996 142.163 36.7843C142.163 16.4689 110.415 0 71.2513 0C32.0881 0 0.340088 16.4689 0.340088 36.7843C0.340088 57.0996 32.0881 73.5685 71.2513 73.5685Z" fill="#8993BE"/>
<path fill-rule="evenodd" clip-rule="evenodd" d="M20.2537 58.5643L28.0251 19.3599H45.995C53.7659 19.844 57.6516 23.7157 57.6516 30.4923C57.6516 42.1083 48.4237 48.8844 40.1664 48.4002H31.425L29.4821 58.5643H20.2537ZM33.3673 41.1405L35.796 26.6201H42.1098C45.5097 26.6201 47.9379 28.072 47.9379 30.9759C47.4526 39.2044 43.5668 40.6564 39.1958 41.1405H33.3678H33.3673ZM55.8461 48.4002L63.617 9.19632H72.8454L70.9026 19.3599H79.6446C87.416 19.844 90.33 23.7157 89.3589 28.5562L85.959 48.4002H76.2453L79.6452 30.4923C80.1305 28.072 80.1305 26.6201 76.7312 26.6201H69.4456L65.0746 48.4002H55.8461ZM85.3369 58.5643L93.1078 19.3599H111.078C118.85 19.844 122.735 23.7157 122.735 30.4923C122.735 42.1083 113.507 48.8844 105.25 48.4002H96.5076L94.5648 58.5643H85.3369ZM98.4499 41.1405L100.879 26.6201H107.193C110.593 26.6201 113.021 28.072 113.021 30.9759C112.536 39.2044 108.65 40.6564 104.279 41.1405H98.4505H98.4499Z" fill="#232531"/>
</g>
<defs>
<clipPath id="clip0">
<rect width="141.822" height="74" fill="white" transform="translate(0.340088)"/>
</clipPath>
</defs>
</svg>
