<svg width="84" height="75" viewBox="0 0 84 75" fill="none" xmlns="http://www.w3.org/2000/svg">
<g clip-path="url(#clip0)">
<path d="M0.94458 37.4186C0.94458 43.6844 7.02004 49.5334 16.598 52.8305C14.6854 62.5273 16.2555 70.3433 21.4991 73.3886C26.8887 76.5191 34.9183 74.3522 42.5396 67.643C49.9685 74.0813 57.4765 76.615 62.7156 73.5608C68.1004 70.4216 69.7378 62.0757 67.7724 52.0759C77.7486 48.7544 83.329 43.7669 83.329 37.4186C83.329 31.2983 77.2425 26.0036 67.7934 22.7277C69.9094 12.3147 68.1166 4.68854 62.6557 1.51734C57.391 -1.54006 49.7956 1.12473 42.2576 7.73126C34.4151 0.719075 26.8949 -1.42169 21.4398 1.75832C16.18 4.82452 14.6792 12.7827 16.598 22.6589C7.34319 25.9084 0.94458 31.323 0.94458 37.4186Z" fill="white"/>
<path d="M65.7924 25.9806C65.0137 25.7116 64.2283 25.4624 63.4371 25.2332C63.5683 24.6963 63.6897 24.157 63.8011 23.6155C65.5839 14.8999 64.4182 7.87857 60.4374 5.56727C56.6208 3.35054 50.3786 5.66184 44.0742 11.1867C43.453 11.7324 42.8456 12.2937 42.2525 12.8703C41.8553 12.4869 41.4512 12.111 41.0402 11.7427C34.4331 5.83466 27.8104 3.34532 23.8338 5.66347C20.0207 7.8864 18.8913 14.4874 20.4964 22.7471C20.6561 23.5651 20.8364 24.3788 21.0371 25.1876C20.1 25.4556 19.195 25.7413 18.3292 26.0452C10.5832 28.7647 5.63623 33.0273 5.63623 37.4484C5.63623 42.0149 10.9465 46.5951 19.015 49.3721C19.6692 49.5962 20.3289 49.8039 20.9934 49.9949C20.7775 50.8662 20.5859 51.7434 20.4187 52.6255C18.8884 60.7418 20.0835 67.1862 23.8866 69.3954C27.8146 71.6764 34.4071 69.3318 40.8268 63.6808C41.3342 63.234 41.8435 62.7602 42.3535 62.2636C42.9959 62.8878 43.6554 63.4937 44.3313 64.0809C50.5495 69.4695 56.6907 71.6454 60.4905 69.4303C64.415 67.1425 65.6901 60.2194 64.0342 51.7962C63.9079 51.1529 63.7606 50.4958 63.5955 49.8267C64.0585 49.6891 64.5128 49.5469 64.9561 49.3988C73.3438 46.6004 78.8008 42.0759 78.8008 37.4484C78.8008 33.0114 73.6944 28.7201 65.7924 25.9806Z" fill="#53C1DE"/>
<path d="M63.9727 46.4113C63.5728 46.5446 63.1622 46.6734 62.7438 46.7983C61.8178 43.8463 60.5679 40.707 59.0389 37.4641C60.4983 34.2978 61.6996 31.199 62.5997 28.2659C63.348 28.4843 64.0746 28.7142 64.7747 28.9572C71.5454 31.304 75.6751 34.7745 75.6751 37.4485C75.6751 40.2968 71.2148 43.9946 63.973 46.4113H63.9727ZM60.9678 52.4077C61.6999 56.1322 61.8045 59.4997 61.3194 62.1322C60.8836 64.4977 60.0074 66.0746 58.924 66.7062C56.6182 68.0504 51.687 66.3032 46.3696 61.6949C45.7599 61.1667 45.1456 60.6026 44.5298 60.0058C46.5914 57.735 48.6517 55.095 50.6625 52.1634C54.1997 51.8475 57.5413 51.3306 60.5718 50.6253C60.7207 51.2318 60.8535 51.8263 60.9678 52.4077ZM30.5792 66.4741C28.3265 67.2753 26.5323 67.2981 25.4479 66.6684C23.1399 65.3282 22.1808 60.1532 23.4893 53.2125C23.6449 52.3922 23.823 51.5765 24.0235 50.7662C27.0203 51.4337 30.3376 51.914 33.8832 52.2035C35.9073 55.0721 38.0272 57.7089 40.1637 60.0179C39.7096 60.4602 39.2448 60.8912 38.7697 61.3105C35.9309 63.8096 33.0864 65.5822 30.5795 66.4741H30.5792ZM20.0256 46.3937C16.458 45.1656 13.5117 43.5698 11.4922 41.8285C9.67758 40.2632 8.76123 38.7094 8.76123 37.4485C8.76123 34.7657 12.7333 31.3435 19.3579 29.0175C20.1894 28.7268 21.0291 28.4607 21.8761 28.2196C22.7918 31.2186 23.9928 34.3542 25.4421 37.5251C23.974 40.7432 22.7559 43.9288 21.8317 46.963C21.2251 46.7882 20.6229 46.5983 20.0256 46.3937ZM23.5634 22.1426C22.1882 15.0656 23.1013 9.7272 25.3994 8.38763C27.8473 6.96068 33.2596 8.99546 38.9643 14.0964C39.3289 14.4225 39.6951 14.7639 40.062 15.1171C37.9366 17.4157 35.8361 20.0325 33.8295 22.8845C30.3885 23.2057 27.0944 23.7215 24.0663 24.4125C23.8797 23.6601 23.7121 22.9032 23.5634 22.1423V22.1426ZM55.1232 29.9905C54.408 28.7463 53.6662 27.5178 52.8984 26.3058C55.233 26.6025 57.4695 26.9971 59.5696 27.48C58.9392 29.5151 58.1533 31.6431 57.2279 33.8247C56.5518 32.5326 55.85 31.2543 55.1232 29.9905ZM42.2531 17.3664C43.6947 18.9391 45.1385 20.6954 46.5587 22.6008C43.6779 22.4637 40.7922 22.463 37.9113 22.5988C39.3328 20.7111 40.7889 18.9574 42.2531 17.3664ZM29.3005 30.0121C28.5828 31.2658 27.8942 32.5363 27.2353 33.8224C26.3251 31.6484 25.5464 29.5109 24.9104 27.4467C26.998 26.9762 29.2241 26.5917 31.5435 26.2999C30.7671 27.5194 30.0192 28.7572 29.3005 30.0121ZM31.6102 48.8217C29.214 48.5524 26.9542 48.1875 24.8674 47.73C25.5133 45.6293 26.3092 43.4458 27.2389 41.2252C27.9005 42.5123 28.5921 43.7835 29.3131 45.0378C30.0488 46.3173 30.8147 47.579 31.6102 48.8217ZM42.3396 57.7529C40.8582 56.143 39.3807 54.3626 37.9375 52.4475C39.3383 52.5029 40.7666 52.5309 42.2182 52.5309C43.7096 52.5309 45.1838 52.4973 46.6348 52.4321C45.2101 54.3821 43.7714 56.1652 42.3396 57.7529ZM57.2577 41.112C58.2356 43.3568 59.06 45.5286 59.7147 47.5937C57.5931 48.0812 55.3029 48.4738 52.8896 48.7653C53.663 47.5306 54.4119 46.2806 55.1358 45.0159C55.8718 43.7307 56.5793 42.429 57.2577 41.112ZM52.4282 43.4436C51.3199 45.3825 50.1493 47.2845 48.9182 49.1468C46.7475 49.303 44.5042 49.3835 42.2182 49.3835C39.9415 49.3835 37.7267 49.3121 35.5939 49.1729C34.3309 47.315 33.1381 45.4096 32.0181 43.4608C30.9034 41.5224 29.8622 39.5421 28.8967 37.5241C29.8597 35.5055 30.8978 33.5241 32.0088 31.5841V31.5848C33.1193 29.6444 34.3027 27.7471 35.5563 25.8972C37.7322 25.7315 39.9632 25.6448 42.2185 25.6448C44.4838 25.6448 46.7177 25.7322 48.893 25.8991C50.1339 27.7462 51.3097 29.6369 52.4182 31.5675C53.5329 33.5032 54.5849 35.4749 55.5723 37.4794C54.595 39.5044 53.5464 41.4937 52.4285 43.4436H52.4282ZM58.876 8.29405C61.3259 9.71709 62.2789 15.4552 60.7395 22.9803C60.6386 23.4705 60.5289 23.9589 60.4105 24.4451C57.3752 23.7398 54.0789 23.2148 50.6279 22.8887C48.6174 20.0058 46.5344 17.3844 44.4433 15.1154C44.9913 14.5835 45.5523 14.0653 46.1258 13.5613C51.5274 8.8272 56.5758 6.95807 58.876 8.29405Z" fill="white"/>
<path d="M42.2191 30.869C45.8275 30.869 48.7524 33.8149 48.7524 37.4485C48.7524 41.0824 45.8275 44.0283 42.2191 44.0283C38.611 44.0283 35.6858 41.0824 35.6858 37.4485C35.6858 33.8149 38.611 30.869 42.2191 30.869Z" fill="#53C1DE"/>
</g>
<defs>
<clipPath id="clip0">
<rect width="82.8962" height="75" fill="white" transform="translate(0.701172)"/>
</clipPath>
</defs>
</svg>
