<svg width="102" height="76" viewBox="0 0 102 76" fill="none" xmlns="http://www.w3.org/2000/svg">
<g clip-path="url(#clip0)">
<path d="M87.5076 43.6596C83.981 43.6796 80.9272 44.5305 78.3659 45.7973C77.4202 43.9171 76.4745 42.2742 76.3171 41.0473C76.1398 39.6223 75.9231 38.7513 76.1398 37.0494C76.3563 35.3471 77.3414 32.9325 77.3414 32.7346C77.3215 32.5565 77.1245 31.6857 75.0954 31.6659C73.0663 31.6461 71.3126 32.0617 71.1156 32.5961C70.9186 33.1305 70.5246 34.3575 70.2684 35.6242C69.9138 37.4846 66.2098 44.0753 64.1017 47.5388C63.4122 46.193 62.8211 45.0055 62.7027 44.0553C62.5256 42.6305 62.3087 41.7594 62.5256 40.0575C62.7423 38.3553 63.7274 35.9409 63.7274 35.743C63.7077 35.5648 63.5107 34.694 61.4816 34.6742C59.4521 34.6544 57.6988 35.07 57.5018 35.6044C57.3048 36.1388 57.0881 37.4055 56.6546 38.6325C56.2407 39.8596 51.3152 50.8638 50.0346 53.7336C49.3844 55.1982 48.8133 56.3659 48.3993 57.1576C47.9856 57.9492 48.3796 57.2169 48.3402 57.2961C47.9856 57.969 47.7886 58.3451 47.7886 58.3451V58.3651C47.5127 58.8598 47.2172 59.3346 47.0791 59.3346C46.9806 59.3346 46.7836 58.0086 47.1185 56.188C47.8475 52.368 49.6206 46.4109 49.6011 46.1932C49.6011 46.0942 49.9359 45.045 48.4582 44.5109C47.02 43.9765 46.5079 44.8671 46.3895 44.8671C46.2713 44.8671 46.1728 45.1838 46.1728 45.1838C46.1728 45.1838 47.7687 38.4746 43.119 38.4746C40.2031 38.4746 36.1839 41.6611 34.194 44.5704C32.9331 45.2632 30.2537 46.7275 27.4166 48.2913C26.333 48.885 25.21 49.5184 24.1461 50.0923L23.9296 49.8544C18.2948 43.818 7.8725 39.543 8.30595 31.4284C8.46356 28.4794 9.48806 20.7013 28.3233 11.2804C43.7499 3.56168 56.103 5.67939 58.2503 10.3898C61.3041 17.119 51.6501 29.6273 35.613 31.4284C29.5054 32.1211 26.2938 29.7461 25.4862 28.8555C24.639 27.9252 24.5208 27.8857 24.2056 28.0638C23.6933 28.3409 24.0086 29.1721 24.2056 29.6669C24.6784 30.9138 26.6486 33.1305 29.9979 34.2388C32.9333 35.2086 40.105 35.743 48.7739 32.3784C58.4869 28.5982 66.0721 18.1086 63.8458 9.34085C61.5801 0.414804 46.8431 -2.51437 32.9138 2.45335C24.6191 5.4221 15.6351 10.0534 9.17283 16.1294C1.48909 23.3336 0.267569 29.6273 0.779818 32.2398C2.57289 41.5617 15.3592 47.6378 20.4817 52.1305C20.2256 52.2688 19.9892 52.4074 19.7725 52.5263C17.2112 53.7928 7.45876 58.919 5.01573 64.3417C2.25746 70.4772 5.44917 74.8909 7.57698 75.4847C14.1574 77.3253 20.8955 74.0201 24.5403 68.5774C28.1653 63.1347 27.732 56.069 26.0574 52.843L25.9981 52.7242L28.0077 51.5367C29.3082 50.7648 30.5888 50.0523 31.7116 49.4386C31.0813 51.1605 30.628 53.199 30.3918 56.1678C30.116 59.6513 31.5345 64.1636 33.4062 65.9449C34.2337 66.7166 35.2187 66.7365 35.8295 66.7365C37.9967 66.7365 38.9818 64.9353 40.0654 62.7782C41.4051 60.1459 42.5873 57.098 42.5873 57.098C42.5873 57.098 41.1096 65.3511 45.1485 65.3511C46.6261 65.3511 48.1038 63.4313 48.7737 62.4417V62.4615C48.7737 62.4615 48.8131 62.4022 48.8919 62.2636C48.9745 62.1408 49.0534 62.0155 49.1283 61.8878V61.8482C49.7193 60.819 51.0394 58.4638 53.0096 54.5649C55.5509 49.5378 57.9941 43.244 57.9941 43.244C57.9941 43.244 58.2306 44.7878 58.9595 47.3211C59.3928 48.8255 60.3385 50.468 61.0674 52.0711C60.4764 52.9024 60.1218 53.3775 60.1218 53.3775L60.1415 53.3973C59.6688 54.0307 59.1367 54.7038 58.5852 55.3765C56.5756 57.7911 54.172 60.5423 53.8567 61.334C53.4824 62.264 53.5612 62.9567 54.2902 63.5111C54.8221 63.9069 55.7678 63.9859 56.7726 63.9069C58.5852 63.788 59.8461 63.333 60.4766 63.0557C61.4617 62.6994 62.5847 62.1651 63.6683 61.3734C65.6385 59.909 66.8403 57.8309 66.7221 55.06C66.663 53.5361 66.1704 52.0319 65.5597 50.6069C65.737 50.3496 65.9145 50.0921 66.0916 49.8152C69.2045 45.2432 71.6082 40.2163 71.6082 40.2163C71.6082 40.2163 71.8446 41.76 72.5736 44.2934C72.9477 45.5798 73.6966 46.9852 74.3664 48.3706C71.4505 50.7654 69.6183 53.5363 68.9878 55.3571C67.8254 58.7217 68.7317 60.2457 70.4457 60.6019C71.2139 60.7602 72.3174 60.404 73.1447 60.0477C74.1692 59.7113 75.4104 59.1371 76.5533 58.2863C78.5235 56.8217 80.4149 54.7832 80.3164 52.0321C80.2573 50.7654 79.9224 49.5186 79.4692 48.3311C81.9517 47.3019 85.1629 46.7081 89.2414 47.2029C98.0087 48.2321 99.7425 53.7342 99.4077 56.03C99.0728 58.3261 97.2405 59.5925 96.6296 59.9884C96.0188 60.3644 95.8218 60.5031 95.8809 60.78C95.9597 61.1959 96.2355 61.1759 96.7675 61.0969C97.4965 60.978 101.378 59.2167 101.535 54.9815C101.772 49.538 96.6296 43.6005 87.5076 43.6596ZM19.8907 66.5586C16.9945 69.7451 12.9162 70.9524 11.1824 69.9232C9.31074 68.8347 10.0395 64.144 13.6058 60.7596C15.773 58.7013 18.5903 56.8013 20.4423 55.6336C20.8561 55.3763 21.4865 55.0005 22.2352 54.5451C22.3534 54.4661 22.4322 54.4263 22.4322 54.4263C22.5701 54.3471 22.7277 54.2482 22.8854 54.1492C24.2054 58.9784 22.9445 63.2138 19.8907 66.5586ZM41.0702 52.0909C40.0654 54.5649 37.9376 60.918 36.657 60.5617C35.5535 60.2649 34.8838 55.4555 36.4401 50.7055C37.2281 48.3105 38.9028 45.4607 39.8879 44.3521C41.484 42.5709 43.2175 41.9771 43.6512 42.7094C44.1634 43.6596 41.7007 50.5471 41.0702 52.0909ZM58.5458 60.4826C58.1124 60.7005 57.7183 60.8586 57.541 60.7401C57.4031 60.6609 57.7181 60.364 57.7181 60.364C57.7181 60.364 59.905 58.0088 60.7719 56.9203C61.2645 56.2871 61.8555 55.5548 62.486 54.7234V54.9609C62.4862 57.8107 59.7673 59.7107 58.5458 60.4826ZM72.0217 57.3951C71.7065 57.1576 71.7461 56.4253 72.8098 54.1294C73.2237 53.219 74.1692 51.6951 75.8045 50.2503C76.0015 50.844 76.1199 51.4178 76.1 51.9524C76.0805 55.5149 73.5586 56.8409 72.0217 57.3951Z" fill="#CF649A"/>
</g>
<defs>
<clipPath id="clip0">
<rect width="100.874" height="76" fill="white" transform="translate(0.701172)"/>
</clipPath>
</defs>
</svg>
