<svg width="67" height="75" viewBox="0 0 67 75" fill="none" xmlns="http://www.w3.org/2000/svg">
<g clip-path="url(#clip0)">
<path d="M58.4678 14.7278C58.4161 14.3528 58.0868 14.1452 57.8147 14.1224C57.543 14.0998 51.7944 13.6747 51.7944 13.6747C51.7944 13.6747 47.8019 9.72047 47.3637 9.2828C46.9252 8.84538 46.0689 8.97843 45.7365 9.07603C45.6876 9.09042 44.8642 9.34393 43.5022 9.76439C42.1685 5.93579 39.8148 2.41746 35.674 2.41746C35.5597 2.41746 35.442 2.42208 35.3244 2.42876C34.1467 0.875075 32.6879 0.200073 31.4279 0.200073C21.782 0.200073 17.1736 12.2296 15.7287 18.3427C11.9806 19.5013 9.31787 20.325 8.97776 20.4316C6.88561 21.0863 6.81944 21.1521 6.54472 23.1188C6.33798 24.6077 0.86377 66.8413 0.86377 66.8413L43.52 74.8144L66.6326 69.8264C66.6326 69.8264 58.5191 15.1028 58.4681 14.7278H58.4678ZM41.1446 10.4918L37.5352 11.6063C37.5365 11.3525 37.5378 11.1028 37.5378 10.8298C37.5378 8.45035 37.2067 6.5345 36.6755 5.01575C38.8091 5.28288 40.2301 7.70471 41.1446 10.4918ZM34.0288 5.48758C34.622 6.97038 35.0077 9.09838 35.0077 11.97C35.0077 12.1169 35.0064 12.2512 35.0051 12.3871C32.6578 13.1124 30.1071 13.8999 27.5507 14.69C28.9861 9.16362 31.6766 6.49444 34.0288 5.48758ZM31.163 2.78116C31.5793 2.78116 31.9987 2.92217 32.4001 3.19777C29.3087 4.64897 25.9951 8.30394 24.5958 15.6028L18.7035 17.4234C20.3425 11.8562 24.2343 2.78116 31.1627 2.78116H31.163Z" fill="#95BF46"/>
<path d="M57.8141 14.1224C57.5424 14.0998 51.7938 13.6747 51.7938 13.6747C51.7938 13.6747 47.8013 9.72047 47.3631 9.2828C47.1991 9.11995 46.9779 9.03648 46.7467 9.00052L43.5215 74.8139L66.6319 69.8264C66.6319 69.8264 58.5182 15.1028 58.4672 14.7278C58.4155 14.3528 58.0862 14.1452 57.8141 14.1224Z" fill="#5E8E3E"/>
<path d="M35.673 26.8626L32.8231 35.3196C32.8231 35.3196 30.3262 33.9901 27.2655 33.9901C22.7784 33.9901 22.5526 36.7993 22.5526 37.5072C22.5526 41.3697 32.6452 42.8496 32.6452 51.8969C32.6452 59.0149 28.1197 63.5984 22.0178 63.5984C14.6955 63.5984 10.9509 59.0522 10.9509 59.0522L12.9115 52.5899C12.9115 52.5899 16.7606 55.8865 20.0086 55.8865C22.1308 55.8865 22.9941 54.2196 22.9941 53.0016C22.9941 47.9632 14.714 47.7385 14.714 39.4595C14.714 32.4914 19.7274 25.7484 29.8473 25.7484C33.7467 25.7484 35.673 26.8626 35.673 26.8626Z" fill="white"/>
</g>
<defs>
<clipPath id="clip0">
<rect width="65.9175" height="75" fill="white" transform="translate(0.850098)"/>
</clipPath>
</defs>
</svg>
