<svg width="100" height="82" viewBox="0 0 100 82" fill="none" xmlns="http://www.w3.org/2000/svg">
<path d="M98.0469 0.00415039H1.95312C0.874444 0.00415039 0 0.878168 0 1.95632V79.7863C0 80.8645 0.874444 81.7385 1.95312 81.7385H98.0469C99.1256 81.7385 100 80.8645 100 79.7863V1.95632C100 0.878168 99.1256 0.00415039 98.0469 0.00415039Z" fill="black"/>
<path d="M11.0309 8.50571C10.6969 8.1715 10.2934 8.00439 9.8207 8.00439C9.34805 8.00439 8.94336 8.17306 8.60586 8.5104C8.27305 8.84305 8.1043 9.24754 8.1043 9.71996C8.1043 10.1924 8.27305 10.5973 8.60586 10.9295L13.8566 16.1778L8.61055 21.4213C8.27305 21.7586 8.1043 22.1631 8.09961 22.6355C8.1043 23.108 8.27305 23.5128 8.60586 23.8451C8.94336 24.1778 9.34805 24.3464 9.81602 24.3511C10.2934 24.3511 10.6984 24.1824 11.0359 23.8451L16.8699 18.0093C18.0945 16.79 18.0945 15.5659 16.8699 14.3415L11.0309 8.50571ZM33.9 21.4307C33.5625 21.0933 33.1527 20.9247 32.6754 20.9247V20.9223H21.4121V20.9247C20.9348 20.9247 20.5293 21.0933 20.1922 21.4307C19.8547 21.768 19.6859 22.1729 19.6859 22.65C19.6859 23.1271 19.8547 23.5367 20.1922 23.874C20.5297 24.2113 20.9344 24.38 21.4121 24.38V24.3777H32.675V24.38C33.1523 24.38 33.5617 24.2113 33.8996 23.874C34.2371 23.5367 34.4059 23.1271 34.4059 22.65C34.4059 22.1729 34.2371 21.768 33.8996 21.4307H33.9Z" fill="white"/>
</svg>
