<svg width="77" height="77" viewBox="0 0 77 77" fill="none" xmlns="http://www.w3.org/2000/svg">
<g clip-path="url(#clip0)">
<path d="M5.54022 38.5C5.54022 51.5737 13.0977 62.8716 24.0573 68.2256L8.38479 25.0585C6.50605 29.2878 5.53672 33.8682 5.54022 38.5ZM60.5756 36.8332C60.5756 32.7516 59.117 29.9246 57.8662 27.7245C56.2006 25.0039 54.6395 22.6999 54.6395 19.9792C54.6395 16.943 56.9302 14.1167 60.1569 14.1167C60.3026 14.1167 60.4404 14.1348 60.5825 14.1432C54.7372 8.75958 46.9493 5.47274 38.3958 5.47274C26.9175 5.47274 16.8191 11.393 10.9443 20.36C11.7151 20.3833 12.4414 20.3993 13.0587 20.3993C16.495 20.3993 21.8146 19.9804 21.8146 19.9804C23.586 19.8754 23.7947 22.4903 22.0255 22.7011C22.0255 22.7011 20.2455 22.9116 18.2648 23.0158L30.23 58.7918L37.4201 37.114L32.3011 23.0148C30.5319 22.9107 28.8558 22.7002 28.8558 22.7002C27.0854 22.5957 27.2929 19.8745 29.0633 19.9795C29.0633 19.9795 34.4894 20.3987 37.7175 20.3987C41.1538 20.3987 46.4738 19.9795 46.4738 19.9795C48.246 19.8745 48.4545 22.4894 46.6847 22.7002C46.6847 22.7002 44.901 22.9107 42.9239 23.0148L54.7975 58.5197L58.0747 47.5108C59.4948 42.9424 60.5759 39.6613 60.5759 36.8335L60.5756 36.8332ZM38.9722 41.3892L29.1144 70.185C32.1283 71.0774 35.2539 71.5305 38.3958 71.5306C42.2217 71.5306 45.8908 70.8657 49.3064 69.6584C49.2152 69.514 49.1369 69.3617 49.0724 69.2034L38.9722 41.3892ZM67.225 22.654C67.3662 23.706 67.4464 24.8354 67.4464 26.0502C67.4464 29.4019 66.8237 33.1695 64.9482 37.8804L54.9123 67.0498C64.6799 61.3237 71.2498 50.6856 71.2498 38.5009C71.2504 32.7585 69.7912 27.3586 67.2247 22.654H67.225ZM38.3958 0C17.2778 0 0.0961914 17.2709 0.0961914 38.5C0.0961914 59.7318 17.2778 77.0021 38.3958 77.0021C59.5129 77.0021 76.6968 59.7318 76.6968 38.5C76.6965 17.2709 59.5132 0 38.3961 0H38.3958ZM38.3958 75.2374C18.2465 75.2374 1.8522 58.757 1.8522 38.5C1.8522 18.2445 18.2456 1.76526 38.3958 1.76526C58.5444 1.76526 74.9372 18.2445 74.9372 38.5C74.9372 58.757 58.5444 75.2374 38.3958 75.2374Z" fill="#464342"/>
</g>
<defs>
<clipPath id="clip0">
<rect width="76.9037" height="77" fill="white" transform="translate(0.0961914)"/>
</clipPath>
</defs>
</svg>
