<svg width="71" height="75" viewBox="0 0 71 75" fill="none" xmlns="http://www.w3.org/2000/svg">
<g clip-path="url(#clip0)">
<path d="M24.0544 75H46.8568V56.7647L41.2953 50.8822H29.4769L24.0541 56.7647V75H24.0544ZM53.5308 25.4414L48.108 31.1766V43.8234L53.5308 49.5589H70.9112V25.4411H53.5311L53.5308 25.4414ZM46.8568 0H24.0541V18.3823L29.4769 24.1178H41.2953L46.8571 18.3823V0H46.8568ZM70.9112 75V56.7647L65.4888 50.8822H48.1083V75H70.9112ZM5.42249 0L0 5.73516V24.1178H22.803V0H5.42249ZM48.1083 0V18.3823L53.5311 24.1178H70.9112V0H48.1083ZM35.4556 41.0294C33.6482 41.0294 32.2577 39.4116 32.2577 37.6471C32.2577 35.7352 33.787 34.2647 35.4556 34.2647C37.263 34.2647 38.6536 35.8822 38.6536 37.6471C38.6536 39.4116 37.263 41.0294 35.4556 41.0294ZM22.803 25.4414H0V49.5592H17.2411L22.803 43.8237V25.4414ZM22.803 56.765L17.2411 50.8825H0V75H17.2411L22.803 69.2648V56.7647V56.765Z" fill="#40BAC8"/>
</g>
<defs>
<clipPath id="clip0">
<rect width="70.9112" height="75" fill="white"/>
</clipPath>
</defs>
</svg>
